<svg width="24" height="24" viewBox="0 0 24 24" fill="none" xmlns="http://www.w3.org/2000/svg">
<path d="M22 11.17C20.196 10.825 20.322 10.36 19.5 8.5C19.013 9.196 18.295 10.338 18.477 11.17C18.505 11.408 17.237 11.672 17 11.67H3C3 16.878 6.164 18.67 9.196 18.67C13.32 18.692 16.451 16.294 18.477 12.67C19.623 12.569 21.846 12.125 22.5 11.17H22Z" fill="white" stroke="white" stroke-linecap="round" stroke-linejoin="round"/>
<path d="M4.3999 8.33337H6.06657V10H4.3999V8.33337Z" fill="white" stroke="white" stroke-linecap="round" stroke-linejoin="round"/>
<path d="M7.7334 8.33337H9.40007V10H7.7334V8.33337Z" fill="white" stroke="white" stroke-linecap="round" stroke-linejoin="round"/>
<path d="M11.0664 8.33337H12.7331V10H11.0664V8.33337Z" fill="white" stroke="white" stroke-linecap="round" stroke-linejoin="round"/>
<path d="M14.3999 8.33337H16.0666V10H14.3999V8.33337Z" fill="white" stroke="white" stroke-linecap="round" stroke-linejoin="round"/>
<path d="M7.7334 5H9.40007V6.66667H7.7334V5Z" fill="white" stroke="white" stroke-linecap="round" stroke-linejoin="round"/>
<path d="M11.0664 5H12.7331V6.66667H11.0664V5Z" fill="white" stroke="white" stroke-linecap="round" stroke-linejoin="round"/>
</svg>
